#N canvas 649 174 563 511 10;
#X obj 116 59 tools/pd_loop_player;
#X obj 116 239 s~ sound;
#X obj 20 63 tools/dsp_btn;
#X obj 21 340 tools/out;
#X obj 21 273 r~ sound;
#X obj 255 207 r~ sound;
#X obj 255 281 tools/routing;
#X obj 268 233 adc~;
#X obj 317 319 tools/pd_sig_delay;
#X obj 344 205 osc~;
#X floatatom 381 136 5 0 0 0 - - -, f 5;
#X obj 344 180 *~ 100;
#X obj 405 207 osc~;
#X obj 404 180 *~ 10;
#X obj 369 240 *~;
#X obj 116 259 s~ sound2;
#X msg 352 295 1024;
#X obj 254 459 s~ replay;
#X obj 20 318 tools/routing;
#X obj 33 292 r~ replay;
#X msg 116 21 file ../samples/example.wav;
#X text 231 48 Put a wavefile into the samples folder and rename the
message text above., f 28;
#X obj 254 378 pd_scopes;
#X connect 0 0 1 0;
#X connect 0 1 15 0;
#X connect 4 0 18 0;
#X connect 5 0 6 0;
#X connect 6 0 8 0;
#X connect 6 0 22 0;
#X connect 7 0 6 1;
#X connect 8 0 22 1;
#X connect 9 0 14 0;
#X connect 10 0 11 0;
#X connect 10 0 13 0;
#X connect 11 0 9 0;
#X connect 12 0 14 1;
#X connect 13 0 12 0;
#X connect 14 0 6 2;
#X connect 16 0 8 1;
#X connect 18 0 3 0;
#X connect 18 0 3 1;
#X connect 19 0 18 1;
#X connect 20 0 0 0;
#X connect 22 0 17 0;
