#N canvas 869 63 641 573 10;
#X msg 78 58 0;
#X obj 124 59 bng 15 250 50 0 empty empty empty 17 7 0 10 -262144 -1
-1;
#X obj 61 239 dac~;
#X obj 108 197 *~;
#X obj 16 51 vsl 12 128 0 1 0 0 empty empty empty 0 -9 0 10 -262144
-1 -1 0 1;
#X msg 22 347 0;
#X msg 66 346 1;
#X obj 61 198 *~;
#X obj 281 403 bng 15 250 50 0 empty empty empty 17 7 0 10 -262144
-1 -1;
#X obj 280 425 bng 15 250 50 0 empty empty empty 17 7 0 10 -262144
-1 -1;
#X obj 129 296 receive~ sound;
#X obj 158 196 send~ sound;
#X obj 189 328 sigmund~ -hop 128 -npts 256;
#X obj 158 365 env~;
#X obj 124 16 loadbang;
#X msg 22 382 \; pd dsp \$1;
#X obj 129 451 Scopes, f 22;
#X obj 160 59 bng 15 250 50 0 empty empty empty 17 7 0 10 -262144 -1
-1;
#X obj 78 119 readsf~ 2;
#X msg 78 95 open tradition.wav \, 1;
#X text 250 94 use a soundfile from your disc for testing;
#X text 313 399 open scopes;
#X text 313 421 set defaults \, see Scopes for further options;
#X obj 330 145 cnv 15 200 120 empty empty pd_scopes_Example 20 50 0
14 -257985 -66577 0;
#X connect 0 0 19 0;
#X connect 1 0 19 0;
#X connect 3 0 2 1;
#X connect 4 0 7 0;
#X connect 4 0 3 0;
#X connect 5 0 15 0;
#X connect 6 0 15 0;
#X connect 7 0 2 0;
#X connect 8 0 16 4;
#X connect 9 0 16 5;
#X connect 10 0 12 0;
#X connect 10 0 13 0;
#X connect 10 0 16 0;
#X connect 12 0 16 2;
#X connect 13 0 16 1;
#X connect 14 0 1 0;
#X connect 17 0 19 0;
#X connect 18 0 7 1;
#X connect 18 0 11 0;
#X connect 18 1 3 0;
#X connect 18 2 17 0;
#X connect 19 0 18 0;
#X coords 0 0 10 10 0 0 0;
