#N canvas 793 432 637 251 10;
#X obj 90 182 print;
#X msg 526 102 open_scopes;
#X obj 91 10 inlet~;
#X obj 190 10 inlet~;
#X obj 289 10 inlet~;
#X obj 388 10 inlet~;
#X msg 10 30 reload;
#X msg 11 52 \; pd dsp \$0;
#X obj 91 157 pyext~ 1 0 4 0 pd_scopes Scopes, f 57;
#X obj 490 11 inlet;
#X obj 403 107 bng 30 250 50 0 empty empty Open 32 15 0 15 -262130
-86277 -1;
#X connect 1 0 8 4;
#X connect 2 0 8 0;
#X connect 3 0 8 1;
#X connect 4 0 8 2;
#X connect 5 0 8 3;
#X connect 6 0 7 0;
#X connect 6 0 8 0;
#X connect 8 0 0 0;
#X connect 9 0 8 4;
#X connect 10 0 1 0;
#X coords 0 -1 1 1 85 60 1 400 90;
