#N canvas 132 405 1024 349 10;
#X obj 95 293 print;
#X msg 528 221 scopes \$1;
#X floatatom 528 190 5 1 4 0 - - -, f 5;
#X msg 492 47 open_scopes;
#X msg 633 156 88200;
#X msg 632 82 220500;
#X msg 633 130 132300;
#X msg 632 106 176400;
#X msg 615 220 samples \$1;
#X msg 633 180 44100;
#X msg 529 92 1;
#X msg 546 159 4;
#X msg 542 136 3;
#X msg 535 116 2;
#X msg 763 195 0;
#X msg 726 195 1;
#X msg 726 220 open_graph_on_top \$1;
#X obj 95 7 inlet~;
#X obj 194 7 inlet~;
#X obj 293 7 inlet~;
#X obj 392 7 inlet~;
#X obj 492 7 inlet;
#X obj 600 6 inlet;
#X obj 95 268 pyext~ 1 0 4 0 pd_scopes Scopes, f 57;
#X connect 1 0 23 4;
#X connect 2 0 1 0;
#X connect 3 0 23 4;
#X connect 4 0 8 0;
#X connect 5 0 8 0;
#X connect 6 0 8 0;
#X connect 7 0 8 0;
#X connect 8 0 23 4;
#X connect 9 0 8 0;
#X connect 10 0 2 0;
#X connect 11 0 2 0;
#X connect 12 0 2 0;
#X connect 13 0 2 0;
#X connect 14 0 16 0;
#X connect 15 0 16 0;
#X connect 16 0 23 4;
#X connect 17 0 23 0;
#X connect 18 0 23 1;
#X connect 19 0 23 2;
#X connect 20 0 23 3;
#X connect 21 0 3 0;
#X connect 22 0 11 0;
#X connect 22 0 5 0;
#X connect 23 0 0 0;
