#N canvas 2597 273 724 413 10;
#X obj 21 21 tgl 10 0 empty \$0-b0 empty 17 7 0 10 -250685 -1 -262144
1 1;
#X obj 32 21 tgl 10 0 empty \$0-b1 empty 17 7 0 10 -261689 -1 -262144
0 1;
#X obj 43 21 tgl 10 0 empty \$0-b2 empty 17 7 0 10 -261689 -1 -262144
0 1;
#X obj 53 21 tgl 10 0 empty \$0-b3 empty 17 7 0 10 -261689 -1 -262144
0 1;
#X obj 493 138 inlet~;
#X obj 541 138 inlet~;
#X obj 589 138 inlet~;
#X obj 637 138 inlet~;
#X obj 492 230 *~;
#X obj 540 230 *~;
#X obj 587 231 *~;
#X obj 640 230 *~;
#X obj 560 311 outlet~;
#X obj 31 353 s \$0-b0;
#X obj 88 353 s \$0-b1;
#X obj 145 352 s \$0-b2;
#X obj 202 351 s \$0-b3;
#X msg 32 246 color 3 \, 0;
#X obj 32 225 sel 1;
#X msg 31 272 color 19;
#X msg 117 245 color 3 \, 0;
#X obj 117 224 sel 1;
#X msg 116 271 color 19;
#X msg 202 244 color 3 \, 0;
#X obj 202 223 sel 1;
#X msg 201 270 color 19;
#X msg 289 245 color 3 \, 0;
#X obj 289 224 sel 1;
#X msg 288 271 color 19;
#X obj 22 1 loadbang;
#X connect 0 0 8 1;
#X connect 0 0 18 0;
#X connect 1 0 9 1;
#X connect 1 0 21 0;
#X connect 2 0 10 1;
#X connect 2 0 24 0;
#X connect 3 0 11 1;
#X connect 3 0 27 0;
#X connect 4 0 8 0;
#X connect 5 0 9 0;
#X connect 6 0 10 0;
#X connect 7 0 11 0;
#X connect 8 0 12 0;
#X connect 9 0 12 0;
#X connect 10 0 12 0;
#X connect 11 0 12 0;
#X connect 17 0 14 0;
#X connect 17 0 15 0;
#X connect 17 0 16 0;
#X connect 18 0 17 0;
#X connect 18 0 19 0;
#X connect 19 0 13 0;
#X connect 20 0 13 0;
#X connect 20 0 15 0;
#X connect 20 0 16 0;
#X connect 21 0 20 0;
#X connect 21 0 22 0;
#X connect 22 0 14 0;
#X connect 23 0 13 0;
#X connect 23 0 14 0;
#X connect 23 0 16 0;
#X connect 24 0 23 0;
#X connect 24 0 25 0;
#X connect 25 0 15 0;
#X connect 26 0 13 0;
#X connect 26 0 14 0;
#X connect 26 0 15 0;
#X connect 27 0 26 0;
#X connect 27 0 28 0;
#X connect 28 0 16 0;
#X connect 29 0 0 0;
#X coords 0 -1 1 1 44 12 2 20 20;
